<svg width="6308" height="1429" viewBox="0 0 6308 1429" fill="none" xmlns="http://www.w3.org/2000/svg">
<g clip-path="url(#clip0_1_66)">
<mask id="mask0_1_66" style="mask-type:luminance" maskUnits="userSpaceOnUse" x="0" y="0" width="6308" height="1429">
<path d="M6307.09 0H0V1428.66H6307.09V0Z" fill="white"/>
</mask>
<g mask="url(#mask0_1_66)">
<path d="M6307.09 0H0V1428.66H6307.09V0Z" fill="#2B2B2B"/>
<path opacity="0.3" d="M1585.95 -376.686L1873.75 -542.978L2161.55 -376.686V-44.0815L1873.75 122.211L1585.95 -44.0815V-376.686ZM932.211 -376.686L1220.02 -542.978L1507.82 -376.686V-44.0814L1220.02 122.211L932.211 -44.0814V-376.686ZM278.475 -376.686L566.279 -542.978L854.083 -376.686V-44.0814L566.279 122.211L278.475 -44.0814V-376.686ZM-375.261 -376.686L-87.4575 -542.978L200.346 -376.686V-44.0814L-87.4575 122.211L-375.261 -44.0813V-376.686ZM1259.35 186.6L1547.15 20.3073L1834.96 186.6V519.204L1547.15 685.497L1259.35 519.204V186.6ZM608.322 186.6L896.126 20.3074L1183.93 186.6V519.204L896.126 685.497L608.322 519.204V186.6ZM-45.4141 186.599L242.39 20.3074L530.193 186.6V519.204L242.39 685.497L-45.4141 519.204V186.599ZM281.725 749.885L569.529 583.593L857.332 749.885V1082.49L569.529 1248.78L281.725 1082.49V749.885Z" stroke="url(#paint0_linear_1_66)" stroke-width="29.4764"/>
<path d="M1877.46 139.232L2180 -35.5757V-385.192L1877.46 -560L1574.91 -385.192V-35.5757L1877.46 139.232Z" fill="#249A43"/>
<path d="M567.519 139.232L870.06 -35.5757V-385.192L567.519 -560L264.977 -385.192V-35.5757L567.519 139.232Z" fill="#F5921E"/>
<path d="M567.519 1268.19L870.06 1093.39V743.769L567.519 568.961L264.977 743.769V1093.39L567.519 1268.19Z" fill="#D22651"/>
<path d="M2513.39 299.903L2683.72 521.496C2693.41 523.143 2697.69 515.039 2703.23 509.043C2728.13 481.961 2847.27 304.911 2859.59 300.694L3242.81 299.705L3260.93 349.124H3147.47V856.422H3088.23V349.124H2893.32L2729.06 572.364L2935.23 856.422L2863.34 851.876L2686.1 620.004L2498.57 856.422H2071.79V299.903H2513.39ZM2130.96 807.201H2468.98L2652.36 573.287L2478.8 349.124H2130.96V531.38H2362.9V580.601H2130.96V807.135V807.201Z" fill="white"/>
<path d="M4376 299.902L4607.94 693.867V299.902H4716.47V856.422H4585.74L4336.53 442.689V856.422H4228.01V299.902H4376Z" fill="#F5921E"/>
<path d="M4178.66 299.902V393.468H3877.67V516.619H4087.33L4094.78 523.999V610.185H3877.67V762.856H4178.66V856.422H3769.08V299.902H4178.66Z" fill="#F5921E"/>
<path d="M1664.71 299.902L1802.42 507.197L1953.32 762.922V299.902H2012.55V856.422L1940.93 851.546C1848.55 687.608 1755.9 522.55 1647.45 368.825V849.042C1633.15 863.472 1607.25 853.852 1588.21 856.422V299.902H1664.71Z" fill="white"/>
<path d="M3724.67 531.38V839.225C3707.01 852.996 3627.35 868.81 3611.14 858.992L3571.67 775.178C3569.76 761.802 3601.78 769.907 3611.21 762.857V620.004H3497.74C3483.71 591.275 3488.19 562.481 3487.86 531.38H3724.67Z" fill="#F5921E"/>
<path d="M3704.58 305.174L3685.01 398.279C3597.24 386.88 3481.41 359.864 3406.42 418.046L3360.1 321.977C3393.05 274.666 3689.3 287.186 3704.58 305.174Z" fill="#F5921E"/>
<path d="M4387.43 941.423C4364.23 942.844 4341.19 947.857 4328.21 954.375L4323.35 956.798V949.779V942.844L4320.67 942.426C4319.16 942.259 4257.26 942.342 4183.05 942.593C4037.14 943.178 4043.17 943.011 4024.82 947.69C4011.17 951.199 3995.17 959.305 3988.8 965.906C3987.38 967.326 3986.04 968.496 3985.62 968.496C3985.29 968.496 3984.95 962.647 3984.95 955.461V942.509L3929.5 942.844C3882.85 943.094 3872.88 943.428 3867.27 944.515C3853.44 947.272 3842.97 951.45 3832.59 958.302C3827.73 961.477 3813.16 975.348 3810.06 979.777L3808.3 982.283L3808.21 970.585C3808.21 964.151 3807.96 955.294 3807.71 950.865L3807.12 942.844L3794.06 942.426C3786.85 942.175 3753.1 942.259 3719.01 942.593C3650.49 943.261 3648.39 943.345 3633.99 948.776C3620.17 953.873 3609.03 963.733 3603.08 976.184C3598.39 986.127 3596.8 993.397 3597.3 1003.34C3598.05 1016.79 3603 1027.57 3613.13 1037.77C3619.75 1044.45 3625.53 1047.96 3634.91 1051.14C3648.9 1055.9 3654.26 1056.4 3697.65 1057.07C3740.7 1057.74 3743.8 1058.07 3750.67 1062.58C3755.28 1065.59 3757.12 1069.1 3757.12 1074.7C3757.12 1078.13 3756.62 1080.13 3755.28 1082.22C3752.76 1085.98 3745.64 1089.41 3738.27 1090.49C3734.84 1090.99 3706.94 1091.33 3670.26 1091.33H3608.02V1112.22V1133.11H3679.97C3724.28 1133.11 3755.28 1132.77 3760.55 1132.19C3782.92 1129.93 3796.82 1123.25 3807.88 1109.54C3810.56 1106.2 3812.99 1103.11 3813.41 1102.69C3813.74 1102.19 3816.67 1104.45 3820.11 1107.71C3830.33 1117.48 3839.37 1122.66 3853.95 1126.84C3871.04 1131.77 3890.05 1133.02 3948.77 1133.11H3984.95V1120.57V1108.04L3991.65 1113.3C4005.56 1124.33 4021.39 1129.85 4046.01 1132.27C4050.79 1132.69 4076.76 1133.11 4104.82 1133.11H4154.99L4155.16 1114.72C4155.24 1104.61 4155.32 1095.34 4155.32 1094L4155.41 1091.75L4111.01 1091.66C4063.6 1091.66 4058.41 1091.24 4047.61 1087.15C4037.47 1083.31 4030.43 1075.28 4026.92 1063.42L4024.99 1057.07H3993.24H3961.41L3961.92 1060.16C3963.09 1067.1 3966.11 1077.12 3969.04 1083.89L3972.14 1091.16L3957.39 1091.5C3935.95 1092.08 3897.84 1090.83 3890.3 1089.41C3873.21 1085.98 3864.33 1079.63 3860.06 1067.51C3857.8 1061 3856.46 1044.62 3857.05 1029.08C3857.8 1009.77 3859.64 1002.76 3865.67 996.071C3873.55 987.381 3881.25 985.459 3911.74 984.289C3935.03 983.37 3971.8 983.537 3972.81 984.456C3973.06 984.79 3972.14 987.297 3970.8 990.138C3966.94 997.742 3962.34 1011.36 3962.34 1015.21C3962.34 1015.87 3970.96 1016.12 3993.41 1015.96L4024.49 1015.71L4026.83 1009.19C4028.09 1005.6 4030.27 1001.25 4031.61 999.58C4035.21 995.151 4042.08 990.556 4048.28 988.55C4060.17 984.539 4062.85 984.456 4127.93 984.372H4189.33L4189.5 999.998L4189.75 1015.71L4218.9 1015.96L4247.97 1016.12V1000.25V984.372H4271C4283.65 984.372 4294.03 984.456 4294.03 984.623C4294.03 984.79 4292.69 988.049 4290.94 991.976C4287.92 998.912 4283.98 1011.78 4283.98 1014.7C4283.98 1016.04 4285.83 1016.12 4315.14 1015.96L4346.39 1015.71L4348.65 1009.11C4352.33 998.41 4357.44 992.561 4367.24 987.548C4376.12 983.119 4383.41 981.615 4397.9 981.531C4427.3 981.364 4441.96 989.469 4449.08 1010.02C4449.92 1012.62 4451.17 1015.12 4451.76 1015.46C4452.26 1015.79 4476.39 1016.12 4505.37 1016.12H4557.89V1000.25V984.372L4559.98 983.871C4563.41 983.035 4631.6 984.205 4637.04 985.208C4648.01 987.381 4651.95 991.391 4651.53 999.998C4651.11 1006.26 4649.44 1008.94 4644.08 1011.61C4637.46 1015.04 4631.09 1015.71 4605.63 1015.71H4581.76L4581.51 1036.43L4581.34 1057.07H4587.79C4599.26 1057.15 4616.18 1058.57 4621.63 1059.99C4635.95 1063.75 4643.41 1071.27 4647.01 1085.9C4647.68 1088.65 4649.19 1098.43 4650.36 1107.62C4651.53 1116.81 4653.04 1126.34 4653.79 1128.68L4655.13 1133.11H4687.05H4718.88L4718.46 1130.85C4718.29 1129.51 4717.29 1125.5 4716.36 1121.83C4715.36 1118.15 4713.85 1108.12 4712.85 1099.6C4710.92 1081.97 4709.08 1073.7 4705.22 1065.76C4701.87 1058.66 4693.5 1049.8 4686.88 1046.29C4684.12 1044.79 4681.85 1043.45 4681.85 1043.37C4681.85 1043.2 4684.87 1041.36 4688.56 1039.19C4705.89 1029.16 4714.52 1015.71 4714.52 998.745C4714.52 984.957 4709.75 973.76 4699.44 963.483C4689.31 953.288 4676.91 948.024 4655.05 944.515C4647.43 943.345 4636.37 943.094 4573.21 942.844L4500.09 942.509L4499.92 961.059L4499.67 979.526L4495.48 974.345C4484.68 960.892 4462.9 949.528 4439.19 945.183C4423.36 942.175 4401.33 940.587 4387.43 941.423ZM3794.56 984.122L3806.45 984.623L3802.77 991.809C3798.58 1000.25 3795.23 1010.53 3793.89 1019.55L3792.88 1026.07L3789.87 1024.56C3784.34 1021.72 3772.7 1018.55 3763.4 1017.21C3756.62 1016.29 3744.72 1015.96 3718.59 1015.79C3680.98 1015.54 3674.03 1014.95 3667.58 1011.7C3661.88 1008.86 3660.37 1006.26 3660.37 999.413C3660.37 992.478 3661.88 989.887 3668 986.879C3671.85 984.957 3673.02 984.79 3690.95 984.289C3718.59 983.62 3780.82 983.453 3794.56 984.122Z" fill="#F5921E"/>
<path d="M3864.33 1036.11C3864.33 1054.32 3864.5 1057 3865.67 1057.41C3866.42 1057.67 3879.24 1057.92 3894.15 1057.92H3921.29V1036.61V1015.3H3892.81H3864.33V1036.11Z" fill="#F5921E"/>
<path d="M4189.83 1062.17C4189.58 1065.01 4189.32 1082.14 4189.32 1100.19V1133.11H4218.64H4247.96V1095.09V1057.07H4219.14H4190.41L4189.83 1062.17Z" fill="#F5921E"/>
<path d="M4283.65 1060.59C4284.4 1066.02 4288.59 1077.97 4292.02 1084.82C4303.33 1107.46 4322.35 1121.08 4353.25 1128.77C4369.5 1132.86 4383.99 1134.2 4407.53 1133.7C4428.56 1133.28 4435.59 1132.45 4450.5 1128.52C4486.02 1119.16 4508.55 1095.01 4514.66 1059.75L4515.17 1057.08H4483.42H4451.67L4449.5 1064.01C4444.64 1079.64 4435.84 1087.83 4419.01 1092.34C4410.46 1094.59 4389.69 1094.85 4380.31 1092.76C4365.73 1089.5 4355.35 1081.48 4350.32 1069.44C4348.9 1066.1 4347.56 1061.92 4347.22 1060.17L4346.64 1057.08H4314.89H4283.14L4283.65 1060.59Z" fill="#F5921E"/>
<path fill-rule="evenodd" clip-rule="evenodd" d="M3378.1 1048.85C3378.1 1044.59 3386.6 1042.65 3391.37 1042.65H3392.11C3397.06 1042.65 3405.61 1044.64 3405.61 1049.03V1049.22C3405.61 1054.03 3396.78 1055.15 3391.88 1055.56C3387.29 1055.94 3378.05 1053.38 3378.05 1049.6V1048.85H3378.1ZM3453.92 1052.6C3453.66 1054.04 3452.92 1055.34 3451.81 1056.3C3450.61 1057.52 3449.56 1057.63 3448.22 1058.53C3446.6 1059.57 3441.18 1060.48 3438.35 1060.48H3436.24C3430.44 1060.48 3420.67 1057.71 3420.67 1052.6V1009.58L3339.84 1046.41V1082.6C3339.84 1083.41 3361.4 1094.33 3363.81 1095.57C3371.77 1099.65 3379.92 1104.39 3388.01 1108.32C3392.84 1110.68 3436.13 1133.8 3436.43 1133.8C3436.51 1133.8 3481.38 1110.64 3484.58 1108.6C3488.17 1106.35 3492.9 1104.62 3496.52 1102.38C3497.37 1101.87 3498.56 1101.24 3499.46 1100.82C3500.79 1100.21 3501.21 1099.82 3502.54 1099.2C3504.52 1098.27 3506.6 1097.08 3508.53 1096.02C3511.04 1094.69 3532.41 1084.08 3532.41 1083.14V1048.48C3532.41 1047.65 3515.17 1039.43 3513.03 1038.41C3506.4 1035.16 3499.93 1031.86 3493.28 1028.53L3473.66 1018.72L3463.78 1013.78C3461.88 1012.82 3455.41 1009.26 3453.92 1008.9V1052.6Z" fill="#F5921E"/>
<path fill-rule="evenodd" clip-rule="evenodd" d="M3401.53 969.703V973.27C3401.53 977.076 3403.94 982.871 3405.51 985.205C3407.59 988.364 3410.19 991.151 3413.19 993.454C3420.15 998.564 3428.52 1001.39 3437.16 1001.56C3454.77 1001.56 3472.97 988.773 3472.97 971.546C3472.97 961.852 3467.15 954.134 3461.68 949.824C3454.68 944.461 3446.16 941.444 3437.34 941.204C3428.71 941.204 3417.99 945.289 3413.39 949.32C3410.36 951.657 3407.72 954.459 3405.57 957.622C3403.94 959.996 3401.53 965.857 3401.53 969.703Z" fill="#F5921E"/>
<path fill-rule="evenodd" clip-rule="evenodd" d="M3435.47 1058.6H3439.04C3443.34 1058.6 3450.85 1055.94 3450.85 1051.85V1001.6C3448.75 1002.27 3446.61 1002.82 3444.45 1003.26C3442.04 1003.68 3439.6 1003.93 3437.16 1004.02C3433.62 1004.02 3425.86 1002.7 3423.67 1001.6V1035.91C3423.67 1039.21 3423.27 1050.9 3423.8 1053.03C3424.58 1056.16 3431.47 1058.6 3435.47 1058.6Z" fill="#F5921E"/>
<path d="M1634.58 1138.98H1589.82V961.909H1668.71C1686.43 961.909 1700.6 964.053 1711.23 968.342C1721.86 972.632 1729.51 979.625 1734.17 989.323C1738.83 999.02 1741.16 1012.17 1741.16 1028.77C1741.16 1044.43 1738.83 1057.21 1734.17 1067.09C1729.51 1076.79 1721.86 1083.97 1711.23 1088.63C1700.6 1093.29 1686.43 1095.62 1668.71 1095.62H1634.58V1138.98ZM1661.44 998.554H1634.58V1058.98H1661.44C1674.68 1058.98 1683.54 1056.74 1688.01 1052.26C1692.49 1047.79 1694.73 1039.96 1694.73 1028.77C1694.73 1018.14 1692.49 1010.49 1688.01 1005.83C1683.54 1000.98 1674.68 998.554 1661.44 998.554Z" fill="#F5921E"/>
<path d="M1759.34 1050.31C1759.34 1027.74 1761.86 1009.84 1766.89 996.596C1772.11 983.355 1780.97 973.844 1793.47 968.063C1806.15 962.281 1823.77 959.391 1846.34 959.391C1863.31 959.391 1877.39 960.976 1888.58 964.146C1899.77 967.317 1908.62 972.445 1915.15 979.532C1921.68 986.619 1926.25 996.036 1928.86 1007.79C1931.66 1019.35 1933.05 1033.52 1933.05 1050.31C1933.05 1067.28 1931.66 1081.64 1928.86 1093.38C1926.25 1104.95 1921.68 1114.27 1915.15 1121.36C1908.62 1128.45 1899.77 1133.57 1888.58 1136.74C1877.39 1139.91 1863.31 1141.5 1846.34 1141.5C1829.37 1141.5 1815.29 1139.91 1804.1 1136.74C1792.91 1133.57 1784.05 1128.45 1777.52 1121.36C1770.99 1114.27 1766.33 1104.95 1763.53 1093.38C1760.74 1081.64 1759.34 1067.28 1759.34 1050.31ZM1846.34 1102.34C1858.27 1102.34 1867.22 1100.84 1873.19 1097.86C1879.16 1094.88 1883.17 1089.66 1885.22 1082.2C1887.27 1074.55 1888.3 1063.92 1888.3 1050.31C1888.3 1036.88 1887.27 1026.43 1885.22 1018.97C1883.17 1011.52 1879.16 1006.29 1873.19 1003.31C1867.22 1000.14 1858.27 998.554 1846.34 998.554C1834.59 998.554 1825.64 1000.14 1819.48 1003.31C1813.51 1006.29 1809.41 1011.52 1807.17 1018.97C1805.12 1026.43 1804.1 1036.88 1804.1 1050.31C1804.1 1063.92 1805.12 1074.55 1807.17 1082.2C1809.41 1089.66 1813.51 1094.88 1819.48 1097.86C1825.64 1100.84 1834.59 1102.34 1846.34 1102.34Z" fill="#F5921E"/>
<path d="M2142.63 961.909H2188.22L2150.74 1138.98H2096.19C2090.41 1119.03 2085.37 1099.54 2081.08 1080.52C2076.98 1061.49 2073.06 1041.17 2069.33 1019.53H2068.78C2064.49 1041.17 2060.2 1061.49 2055.91 1080.52C2051.8 1099.54 2047.14 1119.03 2041.92 1138.98H1987.37L1949.89 961.909H1995.48C1998.28 974.963 2000.8 987.738 2003.04 1000.23C2005.28 1012.73 2007.42 1025.5 2009.47 1038.56C2011.71 1051.42 2013.95 1065.41 2016.18 1080.52H2016.74C2019.54 1065.41 2022.25 1051.42 2024.86 1038.56C2027.47 1025.5 2030.17 1012.73 2032.97 1000.23C2035.77 987.738 2038.75 974.963 2041.92 961.909H2096.19C2100.48 981.677 2104.67 1001.44 2108.78 1021.21C2113.07 1040.98 2117.26 1060.75 2121.37 1080.52H2121.93C2125.47 1060.75 2128.92 1040.98 2132.28 1021.21C2135.63 1001.44 2139.08 981.677 2142.63 961.909Z" fill="#F5921E"/>
<path d="M2210.49 1138.98V961.909H2341.97V998.274H2255.25V1031.84H2330.5V1068.21H2255.25V1102.62H2341.97V1138.98H2210.49Z" fill="#F5921E"/>
<path d="M2409.05 1138.98H2364.29V961.909H2448.77C2470.96 961.909 2487.1 966.944 2497.17 977.014C2507.42 986.898 2512.55 1001.54 2512.55 1020.93C2512.55 1035.48 2508.92 1047.97 2501.64 1058.42C2494.37 1068.67 2484.76 1075.11 2472.83 1077.72L2472.55 1078.56C2477.21 1081.54 2482.34 1086.48 2487.93 1093.38C2493.53 1100.29 2499.03 1107.84 2504.44 1116.04C2510.03 1124.06 2514.98 1131.62 2519.27 1138.7V1138.98H2467.23L2437.02 1094.22C2434.41 1090.31 2432.27 1087.51 2430.59 1085.83C2429.1 1084.15 2427.23 1083.13 2424.99 1082.75C2422.94 1082.38 2419.59 1082.2 2414.92 1082.2H2409.05V1138.98ZM2441.5 998.274H2409.05V1045.83H2441.5C2450.82 1045.83 2457.26 1043.96 2460.8 1040.23C2464.53 1036.51 2466.4 1030.44 2466.4 1022.05C2466.4 1013.66 2464.53 1007.6 2460.8 1003.87C2457.26 1000.14 2450.82 998.274 2441.5 998.274Z" fill="#F5921E"/>
<path d="M2544.59 1138.98V961.909H2676.07V998.274H2589.35V1031.84H2664.6V1068.21H2589.35V1102.62H2676.07V1138.98H2544.59Z" fill="#F5921E"/>
<path d="M2698.39 1138.98V961.909H2775.88C2791.36 961.909 2804.32 963.214 2814.76 965.825C2825.21 968.249 2833.6 972.632 2839.94 978.972C2846.28 985.313 2850.85 994.171 2853.65 1005.55C2856.44 1016.74 2857.84 1031.19 2857.84 1048.91C2857.84 1067.37 2856.44 1082.48 2853.65 1094.22C2850.85 1105.97 2846.28 1115.11 2839.94 1121.64C2833.6 1128.17 2825.21 1132.73 2814.76 1135.35C2804.32 1137.77 2791.36 1138.98 2775.88 1138.98H2698.39ZM2769.44 999.673H2743.15V1101.22H2769.44C2780.26 1101.22 2788.75 1100.01 2794.9 1097.58C2801.24 1095.16 2805.72 1090.21 2808.33 1082.75C2811.12 1075.3 2812.52 1064.01 2812.52 1048.91C2812.52 1034.55 2811.12 1023.92 2808.33 1017.02C2805.72 1009.93 2801.24 1005.27 2794.9 1003.03C2788.75 1000.79 2780.26 999.673 2769.44 999.673Z" fill="#F5921E"/>
<path d="M3119.6 1093.66C3119.6 1108.58 3114.94 1119.87 3105.61 1127.51C3096.47 1135.16 3080.25 1138.98 3056.94 1138.98H2969.66V961.909H3054.14C3069.62 961.909 3081.65 963.587 3090.23 966.944C3098.99 970.114 3105.15 974.87 3108.69 981.21C3112.23 987.551 3114 995.477 3114 1004.99C3114 1018.04 3110.83 1028.21 3104.49 1035.48C3098.34 1042.57 3086.68 1046.86 3069.53 1048.35V1049.19C3082.21 1050.12 3092.18 1052.26 3099.46 1055.62C3106.73 1058.79 3111.86 1063.45 3114.84 1069.61C3118.01 1075.76 3119.6 1083.78 3119.6 1093.66ZM3041.83 997.155H3014.42V1031.84H3041.83C3050.97 1031.84 3057.59 1030.72 3061.69 1028.49C3065.8 1026.06 3067.85 1021.4 3067.85 1014.5C3067.85 1007.79 3065.8 1003.22 3061.69 1000.79C3057.59 998.368 3050.97 997.155 3041.83 997.155ZM3047.43 1068.49H3014.42V1104.01H3047.43C3056.56 1104.01 3063.18 1102.8 3067.29 1100.38C3071.39 1097.77 3073.44 1093.01 3073.44 1086.11C3073.44 1079.03 3071.39 1074.36 3067.29 1072.12C3063.18 1069.7 3056.56 1068.49 3047.43 1068.49Z" fill="#F5921E"/>
<path d="M3185.33 1138.98V1084.15L3127.98 962.748V961.909H3176.94C3182.72 977.014 3187.29 989.136 3190.65 998.274C3194.19 1007.23 3196.89 1014.31 3198.76 1019.53C3200.81 1024.57 3202.39 1028.67 3203.51 1031.84C3204.63 1035.01 3205.84 1038.37 3207.15 1041.91H3208.27C3209.57 1038.37 3210.79 1035.01 3211.91 1031.84C3213.02 1028.67 3214.52 1024.57 3216.38 1019.53C3218.43 1014.31 3221.14 1007.23 3224.49 998.274C3228.04 989.136 3232.7 977.014 3238.48 961.909H3287.43V962.748L3230.09 1084.15V1138.98H3185.33Z" fill="#F5921E"/>
<path opacity="0.3" d="M5123.83 1666.37L4872.84 1811.39L4621.85 1666.37V1376.32L4872.84 1231.3L5123.83 1376.32V1666.37ZM5693.93 1666.37L5442.95 1811.39L5191.96 1666.37V1376.32L5442.95 1231.3L5693.93 1376.32V1666.37ZM6264.04 1666.37L6013.05 1811.39L5762.07 1666.37V1376.32L6013.05 1231.3L6264.04 1376.32V1666.37ZM6834.15 1666.37L6583.16 1811.39L6332.17 1666.37V1376.32L6583.16 1231.3L6834.15 1376.32V1666.37ZM5408.64 1175.15L5157.66 1320.17L4906.67 1175.15V885.091L5157.66 740.071L5408.64 885.091V1175.15ZM5976.39 1175.15L5725.4 1320.17L5474.42 1175.15V885.091L5725.4 740.071L5976.39 885.091V1175.15ZM6546.5 1175.15L6295.51 1320.17L6044.52 1175.15V885.091L6295.51 740.071L6546.5 885.091V1175.15ZM6261.21 683.92L6010.22 828.939L5759.23 683.92V393.864L6010.22 248.844L6261.21 393.864V683.92Z" stroke="url(#paint1_linear_1_66)" stroke-width="25.7056"/>
<path d="M6293.28 1332.29L6557.12 1179.85V874.958L6293.28 722.512L6029.44 874.958V1179.85L6293.28 1332.29Z" fill="#FFDB26"/>
<path d="M4872.84 1820.81L5136.68 1668.36V1363.47L4872.84 1211.02L4609 1363.47V1668.36L4872.84 1820.81Z" fill="#0096D3"/>
</g>
</g>
<defs>
<linearGradient id="paint0_linear_1_66" x1="893.147" y1="1265.8" x2="893.147" y2="-560" gradientUnits="userSpaceOnUse">
<stop/>
<stop offset="1" stop-opacity="0"/>
</linearGradient>
<linearGradient id="paint1_linear_1_66" x1="5728" y1="234" x2="5728" y2="1826.24" gradientUnits="userSpaceOnUse">
<stop/>
<stop offset="1" stop-opacity="0"/>
</linearGradient>
<clipPath id="clip0_1_66">
<rect width="6308" height="1429" fill="white"/>
</clipPath>
</defs>
</svg>
