<svg width="524" height="149" viewBox="0 0 524 149" fill="none" xmlns="http://www.w3.org/2000/svg">
<g clip-path="url(#clip0_1_2)">
<path d="M155.403 1.90192L183.86 40.4471C185.478 40.7336 186.194 39.3238 187.119 38.2808C191.28 33.5702 211.183 2.77299 213.242 2.03945L277.266 1.86753L280.294 10.4637H261.337V98.7061H251.441V10.4637H218.878L191.434 49.2954L225.879 98.7061L213.869 97.9152L184.256 57.5821L152.927 98.7061H81.6255V1.90192H155.403ZM91.5111 90.1443H147.984L178.62 49.4558L149.624 10.4637H91.5111V42.1663H130.26V50.7281H91.5111V90.1328V90.1443Z" fill="black"/>
<path d="M466.588 1.90188L505.337 70.4305V1.90188H523.468V98.7061H501.628L459.994 26.7391V98.7061H441.863V1.90188H466.588Z" fill="black"/>
<path d="M433.619 1.90188V18.1773H383.332V39.5989H418.361L419.605 40.8826V55.8743H383.332V82.4307H433.619V98.7061H365.191V1.90188H433.619Z" fill="black"/>
<path d="M13.615 1.90188L36.6225 37.9599L61.8318 82.4422V1.90188H71.7283V98.7061L59.7622 97.8579C44.3284 69.3416 28.8506 40.6305 10.7308 13.8907V97.4224C8.34196 99.9325 4.01566 98.2591 0.83423 98.7061V1.90188H13.615Z" fill="black"/>
<path d="M357.77 42.1663V95.7146C354.82 98.1101 341.51 100.861 338.802 99.1531L332.208 84.574C331.889 82.2473 337.239 83.6571 338.813 82.4307V57.5821H319.857C317.512 52.5848 318.261 47.5762 318.206 42.1663H357.77Z" fill="black"/>
<path d="M354.413 2.81883L351.144 19.014C336.481 17.0312 317.128 12.3319 304.6 22.4525L296.861 5.74152C302.366 -2.48786 351.859 -0.310169 354.413 2.81883Z" fill="black"/>
<path d="M468.496 113.491C464.618 113.738 460.771 114.611 458.601 115.744L457.79 116.166V114.944V113.738L457.342 113.666C457.09 113.637 446.749 113.651 434.35 113.695C409.972 113.797 410.98 113.768 407.915 114.582C405.634 115.192 402.962 116.602 401.897 117.75C401.659 117.998 401.436 118.201 401.365 118.201C401.31 118.201 401.254 117.183 401.254 115.933V113.68L391.989 113.738C384.195 113.782 382.53 113.84 381.592 114.029C379.284 114.509 377.534 115.235 375.798 116.427C374.987 116.98 372.552 119.393 372.035 120.163L371.741 120.599L371.726 118.564C371.726 117.445 371.684 115.904 371.643 115.133L371.545 113.738L369.362 113.666C368.157 113.622 362.518 113.637 356.823 113.695C345.375 113.811 345.025 113.826 342.619 114.77C340.309 115.657 338.449 117.372 337.455 119.538C336.671 121.268 336.406 122.532 336.489 124.261C336.615 126.602 337.441 128.477 339.134 130.25C340.24 131.412 341.205 132.023 342.773 132.576C345.11 133.404 346.005 133.491 353.254 133.607C360.447 133.724 360.964 133.781 362.113 134.566C362.882 135.09 363.19 135.7 363.19 136.674C363.19 137.27 363.106 137.619 362.882 137.982C362.463 138.636 361.273 139.232 360.041 139.422C359.467 139.509 354.807 139.567 348.678 139.567H338.281V143.2V146.834H350.302C357.704 146.834 362.882 146.776 363.764 146.674C367.5 146.281 369.823 145.119 371.67 142.735C372.118 142.154 372.524 141.616 372.594 141.543C372.65 141.456 373.14 141.849 373.713 142.415C375.421 144.116 376.932 145.017 379.367 145.744C382.222 146.601 385.399 146.82 395.208 146.834H401.254V144.654V142.474L402.374 143.39C404.696 145.308 407.342 146.268 411.456 146.688C412.253 146.762 416.591 146.834 421.28 146.834H429.661L429.69 143.636C429.704 141.878 429.717 140.264 429.717 140.031L429.732 139.639L422.315 139.624C414.394 139.624 413.526 139.552 411.721 138.84C410.028 138.171 408.852 136.776 408.265 134.712L407.943 133.607H402.639H397.322L397.406 134.146C397.602 135.352 398.105 137.096 398.594 138.273L399.113 139.537L396.649 139.596C393.067 139.698 386.7 139.48 385.441 139.232C382.586 138.636 381.102 137.532 380.389 135.424C380.011 134.29 379.787 131.442 379.885 128.738C380.011 125.381 380.318 124.159 381.327 122.997C382.642 121.485 383.929 121.151 389.023 120.948C392.913 120.787 399.057 120.817 399.224 120.977C399.267 121.035 399.113 121.471 398.888 121.966C398.246 123.288 397.475 125.657 397.475 126.326C397.475 126.441 398.917 126.485 402.668 126.456L407.859 126.413L408.251 125.279C408.46 124.655 408.825 123.898 409.048 123.608C409.65 122.837 410.797 122.038 411.833 121.689C413.82 120.991 414.268 120.977 425.141 120.963H435.399L435.427 123.68L435.469 126.413L440.339 126.456L445.195 126.485V123.724V120.963H449.044C451.156 120.963 452.892 120.977 452.892 121.006C452.892 121.035 452.668 121.602 452.374 122.285C451.871 123.491 451.212 125.73 451.212 126.239C451.212 126.471 451.521 126.485 456.418 126.456L461.639 126.413L462.016 125.264C462.631 123.404 463.486 122.386 465.123 121.514C466.607 120.744 467.823 120.483 470.245 120.468C475.157 120.439 477.605 121.849 478.795 125.425C478.935 125.875 479.145 126.311 479.243 126.369C479.327 126.428 483.357 126.485 488.198 126.485H496.973V123.724V120.963L497.323 120.875C497.897 120.73 509.288 120.933 510.198 121.107C512.031 121.485 512.689 122.183 512.618 123.68C512.549 124.77 512.268 125.236 511.373 125.701C510.267 126.297 509.204 126.413 504.95 126.413H500.962L500.92 130.017L500.891 133.607H501.969C503.887 133.622 506.714 133.87 507.623 134.116C510.016 134.771 511.261 136.078 511.863 138.622C511.974 139.102 512.227 140.803 512.422 142.4C512.618 143.999 512.871 145.657 512.996 146.064L513.221 146.834H518.552H523.87L523.8 146.442C523.772 146.209 523.604 145.511 523.45 144.872C523.282 144.232 523.03 142.489 522.862 141.006C522.54 137.938 522.232 136.5 521.589 135.119C521.029 133.883 519.63 132.343 518.524 131.732C518.062 131.471 517.684 131.238 517.684 131.224C517.684 131.194 518.189 130.875 518.804 130.496C521.7 128.753 523.142 126.413 523.142 123.463C523.142 121.064 522.344 119.116 520.623 117.328C518.93 115.555 516.859 114.639 513.206 114.029C511.933 113.826 510.085 113.782 499.534 113.738L487.318 113.68L487.289 116.907L487.247 120.119L486.547 119.218C484.743 116.878 481.104 114.901 477.144 114.145C474.499 113.622 470.818 113.346 468.496 113.491ZM369.445 120.919L371.432 121.006L370.817 122.256C370.117 123.724 369.558 125.512 369.333 127.081L369.166 128.216L368.662 127.953C367.738 127.459 365.793 126.907 364.239 126.674C363.106 126.515 361.119 126.456 356.753 126.428C350.469 126.384 349.308 126.282 348.23 125.715C347.279 125.221 347.027 124.77 347.027 123.578C347.027 122.373 347.279 121.922 348.3 121.398C348.944 121.064 349.14 121.035 352.135 120.948C356.753 120.831 367.15 120.802 369.445 120.919Z" fill="black"/>
<path d="M381.101 129.961C381.101 133.129 381.13 133.595 381.326 133.668C381.451 133.711 383.592 133.755 386.083 133.755H390.618V130.048V126.342H385.86H381.101V129.961Z" fill="black"/>
<path d="M435.484 134.494C435.442 134.989 435.4 137.968 435.4 141.108V146.835H440.298H445.195V140.222V133.608H440.381H435.582L435.484 134.494Z" fill="black"/>
<path d="M451.157 134.219C451.284 135.164 451.983 137.243 452.557 138.435C454.447 142.373 457.623 144.742 462.787 146.08C465.501 146.791 467.922 147.024 471.854 146.937C475.367 146.865 476.543 146.719 479.034 146.036C484.968 144.409 488.731 140.208 489.753 134.074L489.838 133.608H484.534H479.23L478.866 134.815C478.054 137.533 476.585 138.957 473.772 139.743C472.344 140.134 468.874 140.178 467.307 139.815C464.872 139.249 463.137 137.852 462.297 135.76C462.059 135.179 461.836 134.452 461.779 134.147L461.681 133.608H456.378H451.074L451.157 134.219Z" fill="black"/>
<path fill-rule="evenodd" clip-rule="evenodd" d="M299.865 132.177C299.865 131.436 301.285 131.101 302.08 131.101H302.205C303.032 131.101 304.461 131.446 304.461 132.21V132.242C304.461 133.079 302.984 133.272 302.166 133.345C301.4 133.411 299.856 132.966 299.856 132.309V132.177H299.865ZM312.532 132.83C312.488 133.08 312.363 133.307 312.18 133.474C311.978 133.686 311.803 133.705 311.579 133.862C311.309 134.044 310.402 134.201 309.931 134.201H309.577C308.61 134.201 306.976 133.718 306.976 132.83V125.347L293.473 131.753V138.049C293.473 138.188 297.074 140.09 297.478 140.304C298.808 141.015 300.168 141.838 301.52 142.523C302.326 142.933 309.56 146.954 309.609 146.954C309.622 146.954 317.119 142.927 317.653 142.571C318.254 142.179 319.043 141.879 319.648 141.489C319.79 141.4 319.989 141.291 320.14 141.218C320.361 141.111 320.433 141.045 320.654 140.936C320.984 140.774 321.332 140.567 321.656 140.382C322.075 140.152 325.645 138.306 325.645 138.142V132.113C325.645 131.969 322.764 130.54 322.408 130.362C321.299 129.796 320.218 129.222 319.107 128.643L315.83 126.937L314.179 126.078C313.862 125.91 312.78 125.292 312.532 125.229V132.83Z" fill="black"/>
<path fill-rule="evenodd" clip-rule="evenodd" d="M303.78 118.41V119.032C303.78 119.693 304.184 120.701 304.445 121.107C304.793 121.656 305.227 122.141 305.729 122.542C306.891 123.43 308.29 123.923 309.732 123.952C312.676 123.952 315.717 121.727 315.717 118.731C315.717 117.045 314.743 115.702 313.831 114.952C312.661 114.02 311.237 113.495 309.764 113.453C308.321 113.453 306.53 114.164 305.762 114.865C305.255 115.272 304.815 115.759 304.456 116.309C304.184 116.722 303.78 117.742 303.78 118.41Z" fill="black"/>
<path fill-rule="evenodd" clip-rule="evenodd" d="M309.45 133.873H310.045C310.763 133.873 312.018 133.412 312.018 132.699V123.959C311.667 124.076 311.31 124.172 310.949 124.247C310.546 124.32 310.139 124.365 309.73 124.381C309.139 124.381 307.842 124.15 307.477 123.959V129.926C307.477 130.501 307.41 132.536 307.499 132.905C307.63 133.449 308.78 133.873 309.45 133.873Z" fill="black"/>
<path d="M8.57849 147.856H1.10084V117.054H14.2802C17.24 117.054 19.6081 117.428 21.3839 118.174C23.1599 118.92 24.4373 120.136 25.2163 121.824C25.9951 123.511 26.3846 125.797 26.3846 128.684C26.3846 131.409 25.9951 133.631 25.2163 135.35C24.4373 137.038 23.1599 138.287 21.3839 139.097C19.6081 139.909 17.24 140.314 14.2802 140.314H8.57849V147.856ZM13.0651 123.429H8.57849V133.94H13.0651C15.2772 133.94 16.7572 133.55 17.5049 132.772C18.2527 131.993 18.6265 130.631 18.6265 128.684C18.6265 126.836 18.2527 125.505 17.5049 124.695C16.7572 123.851 15.2772 123.429 13.0651 123.429Z" fill="black"/>
<path d="M29.4213 132.431C29.4213 128.506 29.8419 125.392 30.6832 123.089C31.5556 120.785 33.0356 119.131 35.1231 118.125C37.2417 117.12 40.1861 116.617 43.956 116.617C46.7913 116.617 49.1436 116.893 51.0131 117.444C52.8824 117.995 54.3624 118.888 55.4529 120.12C56.5433 121.354 57.3067 122.991 57.7429 125.035C58.2102 127.047 58.4439 129.512 58.4439 132.431C58.4439 135.384 58.2102 137.881 57.7429 139.925C57.3067 141.936 56.5433 143.558 55.4529 144.79C54.3624 146.023 52.8824 146.915 51.0131 147.466C49.1436 148.019 46.7913 148.294 43.956 148.294C41.1207 148.294 38.7684 148.019 36.899 147.466C35.0295 146.915 33.5497 146.023 32.4592 144.79C31.3687 143.558 30.5897 141.936 30.1224 139.925C29.655 137.881 29.4213 135.384 29.4213 132.431ZM43.956 141.481C45.9501 141.481 47.4456 141.222 48.4426 140.703C49.4396 140.184 50.1095 139.276 50.4522 137.979C50.795 136.648 50.9663 134.799 50.9663 132.431C50.9663 130.095 50.795 128.279 50.4522 126.981C50.1095 125.684 49.4396 124.776 48.4426 124.257C47.4456 123.706 45.9501 123.429 43.956 123.429C41.9931 123.429 40.4976 123.706 39.4694 124.257C38.4724 124.776 37.7869 125.684 37.4131 126.981C37.0704 128.279 36.899 130.095 36.899 132.431C36.899 134.799 37.0704 136.648 37.4131 137.979C37.7869 139.276 38.4724 140.184 39.4694 140.703C40.4976 141.222 41.9931 141.481 43.956 141.481Z" fill="black"/>
<path d="M93.4567 117.054H101.075L94.8121 147.856H85.6987C84.7328 144.386 83.8915 140.995 83.175 137.686C82.4895 134.377 81.8351 130.841 81.2121 127.079H81.1186C80.402 130.841 79.6853 134.377 78.9688 137.686C78.2833 140.995 77.5044 144.386 76.632 147.856H67.5186L61.256 117.054H68.874C69.3413 119.326 69.7619 121.547 70.1358 123.722C70.5097 125.895 70.868 128.117 71.2107 130.388C71.5846 132.626 71.9585 135.059 72.3324 137.686H72.4258C72.8931 135.059 73.3449 132.626 73.7812 130.388C74.2173 128.117 74.6691 125.895 75.1364 123.722C75.6038 121.547 76.1023 119.326 76.632 117.054H85.6987C86.4153 120.494 87.1163 123.932 87.8017 127.371C88.5183 130.809 89.2194 134.248 89.9049 137.686H89.9983C90.5902 134.248 91.1666 130.809 91.7275 127.371C92.2883 123.932 92.8647 120.494 93.4567 117.054Z" fill="black"/>
<path d="M104.795 147.856V117.054H126.761V123.381H112.273V129.22H124.844V135.545H112.273V141.531H126.761V147.856H104.795Z" fill="black"/>
<path d="M137.967 147.856H130.49V117.054H144.604C148.312 117.054 151.007 117.931 152.689 119.683C154.403 121.402 155.259 123.949 155.259 127.322C155.259 129.852 154.653 132.025 153.437 133.842C152.222 135.627 150.617 136.745 148.623 137.2L148.577 137.346C149.355 137.865 150.212 138.725 151.146 139.925C152.082 141.125 153.001 142.438 153.904 143.866C154.839 145.261 155.664 146.575 156.381 147.808V147.856H147.689L142.641 140.07C142.205 139.389 141.847 138.902 141.566 138.611C141.317 138.319 141.006 138.14 140.631 138.076C140.289 138.011 139.729 137.979 138.949 137.979H137.967V147.856ZM143.389 123.381H137.967V131.653H143.389C144.947 131.653 146.022 131.329 146.613 130.68C147.236 130.031 147.549 128.977 147.549 127.516C147.549 126.057 147.236 125.003 146.613 124.354C146.022 123.706 144.947 123.381 143.389 123.381Z" fill="black"/>
<path d="M160.613 147.856V117.054H182.578V123.381H168.09V129.22H180.662V135.545H168.09V141.531H182.578V147.856H160.613Z" fill="black"/>
<path d="M186.307 147.856V117.054H199.253C201.839 117.054 204.004 117.282 205.749 117.736C207.494 118.158 208.897 118.92 209.956 120.023C211.015 121.126 211.779 122.667 212.245 124.645C212.713 126.593 212.947 129.106 212.947 132.188C212.947 135.4 212.713 138.027 212.245 140.07C211.779 142.114 211.015 143.704 209.956 144.839C208.897 145.974 207.494 146.77 205.749 147.223C204.004 147.645 201.839 147.856 199.253 147.856H186.307ZM198.179 123.624H193.785V141.288H198.179C199.985 141.288 201.403 141.077 202.431 140.655C203.49 140.233 204.239 139.373 204.675 138.076C205.142 136.779 205.376 134.815 205.376 132.188C205.376 129.69 205.142 127.841 204.675 126.641C204.239 125.408 203.49 124.597 202.431 124.208C201.403 123.819 199.985 123.624 198.179 123.624Z" fill="black"/>
<path d="M256.679 139.973C256.679 142.569 255.899 144.531 254.341 145.861C252.815 147.191 250.104 147.856 246.21 147.856H231.628V117.054H245.742C248.329 117.054 250.338 117.347 251.771 117.931C253.235 118.483 254.263 119.31 254.856 120.413C255.448 121.515 255.744 122.894 255.744 124.548C255.744 126.82 255.213 128.587 254.154 129.852C253.126 131.084 251.179 131.831 248.312 132.091V132.236C250.431 132.399 252.098 132.772 253.313 133.356C254.529 133.907 255.385 134.718 255.884 135.788C256.413 136.859 256.679 138.254 256.679 139.973ZM243.685 123.186H239.106V129.22H243.685C245.212 129.22 246.319 129.025 247.004 128.636C247.689 128.215 248.033 127.403 248.033 126.203C248.033 125.035 247.689 124.241 247.004 123.819C246.319 123.397 245.212 123.186 243.685 123.186ZM244.621 135.595H239.106V141.773H244.621C246.147 141.773 247.253 141.563 247.939 141.141C248.624 140.687 248.967 139.859 248.967 138.659C248.967 137.427 248.624 136.616 247.939 136.226C247.253 135.805 246.147 135.595 244.621 135.595Z" fill="black"/>
<path d="M267.659 147.856V138.319L258.079 117.201V117.054H266.258C267.223 119.683 267.987 121.791 268.548 123.381C269.14 124.938 269.591 126.171 269.903 127.079C270.246 127.954 270.511 128.668 270.698 129.22C270.885 129.771 271.087 130.356 271.305 130.971H271.493C271.71 130.356 271.913 129.771 272.1 129.22C272.286 128.668 272.536 127.954 272.848 127.079C273.19 126.171 273.642 124.938 274.203 123.381C274.795 121.791 275.573 119.683 276.54 117.054H284.718V117.201L275.137 138.319V147.856H267.659Z" fill="black"/>
</g>
<defs>
<clipPath id="clip0_1_2">
<rect width="524" height="149" fill="white"/>
</clipPath>
</defs>
</svg>
